<svg xmlns="http://www.w3.org/2000/svg" viewBox="0 0 98.45339 143.00732">
<defs>
<style>
.logo_icon{fill:#000000;}
</style>
</defs>
<path class="logo_icon" d="M91.731,37.05423C85.0295,17.54471,71.69576.94883,49.33266,0c-17.1344-.0238-31.30066,12.3736-39.005,26.471C1.81746,42.18186-1.19475,60.087.4167,77.625c.96625,16.58918,6.06336,31.5365,13.86145,42.77008l.13385.20771.3136.45691c12.54425,19.50872,37.10535,30.15741,57.67121,14.201,9.724-7.44312,15.83477-17.74756,19.5578-29.02588a91.573,91.573,0,0,0,6.49878-34.33069A91.37824,91.37824,0,0,0,91.731,37.05423Zm-62.78991,94.604C-2.4052,109.03281-2.28941,60.341,15.44777,29.394c34.1828-52.72852,82.1463-3.80292,81.08344,42.50878C98.01656,105.61826,66.46858,155.55033,28.94106,131.65824ZM74.29,82.69822v.01092L59.292,67.82865c-1.77362,1.93109-4.39233,4.56177-4.61945,4.79846l21.75879,21.5885,8.63715-8.5694-2.6402-2.6195C82.21077,83.24131,79.148,87.51834,74.29,82.69822ZM62.58876,59.02842c3.14923-4.774,9.711-16.51.309-25.838-4.45123-4.4162-14.80731-10.25854-24.74029-.40326L26.3376,44.51432,49.923,67.91513c-3.56891,3.62409-9.77258,9.762-14.05322,16.06342-3.215,4.73151-9.71106,16.51-.30939,25.83789,4.4516,4.41687,14.80768,10.25867,24.7403.40326L72.07179,98.54093,48.508,75.16141S58.78908,64.78885,62.58876,59.02842Zm-24.7027-12.4375c-2.65667-3.07721-3.01947-4.83606-1.02966-6.76746,3.55646-3.45331,8.85358-11.614,19.958-.59711,4.3703,4.33618,6.30579,12.2168,2.20178,18.3338a35.0869,35.0869,0,0,1-4.46832,5.56208Zm23.2063,50.43823c2.495,2.47558,2.364,4.3471.51484,6.1488-3.55652,3.4538-8.854,11.6145-19.958.5976-4.3703-4.33625-6.30579-12.21735-2.2063-18.32825a35.52379,35.52379,0,0,1,4.41852-5.51459Zm-17.333-26.5791-21.781-21.61042L13.38491,57.366l2.63977,2.6203c.206-.20447,2.9392-4.01324,7.31451-.41479l15.7735,15.65033C40.80959,73.35422,43.44435,70.79435,43.75936,70.45005Z"/>
</svg>